<svg viewBox="0 0 24 24" fill="none" width="100%" height="100%">
<path d="M15.1625 17.6625C16.7208 16.1042 17.5 14.2167 17.5 12C17.5 9.78333 16.7208 7.89583 15.1625 6.3375C13.9817 5.15672 12.1597 4.35602 10.402 4.10029C9.60391 3.98418 9.20482 4.89906 9.63374 5.58204C10.0596 6.26022 10.4192 6.97871 10.7125 7.7375C11.2375 9.09583 11.5 10.5167 11.5 12C11.5 13.4833 11.2375 14.9042 10.7125 16.2625C10.4462 16.9516 10.1252 17.6074 9.74945 18.23C9.31198 18.955 9.78479 19.9392 10.6206 19.8035C12.371 19.5193 14.0025 18.8225 15.1625 17.6625ZM9.5 22C8.61667 22 7.75417 21.8875 6.9125 21.6625C6.07083 21.4375 5.26667 21.1 4.5 20.65C6.05 19.75 7.27083 18.5333 8.1625 17C9.05417 15.4667 9.5 13.8 9.5 12C9.5 10.2 9.05417 8.53333 8.1625 7C7.27083 5.46667 6.05 4.25 4.5 3.35C5.26667 2.9 6.07083 2.5625 6.9125 2.3375C7.75417 2.1125 8.61667 2 9.5 2C10.8833 2 12.1833 2.2625 13.4 2.7875C14.6167 3.3125 15.675 4.025 16.575 4.925C17.475 5.825 18.1875 6.88333 18.7125 8.1C19.2375 9.31667 19.5 10.6167 19.5 12C19.5 13.3833 19.2375 14.6833 18.7125 15.9C18.1875 17.1167 17.475 18.175 16.575 19.075C15.675 19.975 14.6167 20.6875 13.4 21.2125C12.1833 21.7375 10.8833 22 9.5 22Z" fill="currentColor"/>
</svg>