<svg width="24" height="24" viewBox="0 0 24 24" fill="none">
<path d="M18.4 12L14.4 16L13 14.6L14.1858 13.4142C14.9668 12.6332 14.9668 11.3668 14.1858 10.5858L13 9.4L14.4 8L18.4 12Z" fill="currentColor"/>
<path fill-rule="evenodd" clip-rule="evenodd" d="M2 2L22 2L22 22L2 22L2 2ZM20 6C20 4.89543 19.1046 4 18 4L12 4C10.8954 4 10 4.89543 10 6L10 18C10 19.1046 10.8954 20 12 20L18 20C19.1046 20 20 19.1046 20 18L20 6ZM8 6C8 4.89543 7.10457 4 6 4C4.89543 4 4 4.89543 4 6L4 18C4 19.1046 4.89543 20 6 20C7.10457 20 8 19.1046 8 18L8 6Z" fill="currentColor"/>
</svg>